<svg width="512" height="512" viewBox="0 0 512 512" fill="none" xmlns="http://www.w3.org/2000/svg">
  <rect width="512" height="512" rx="144" fill="#0A0614" />
  <g transform="rotate(180 256 256)">
    <path
      d="M379.592 197.835C341.296 217.442 334.925 247.068 334.925 271.779V329.914C334.925 341.771 325.84 351.982 314.034 352.536C301.418 353.134 291.005 343.043 291.005 330.521V-0.588245C291.005 -19.6465 275.599 -35.1055 256.59 -35.1055C237.581 -35.1055 222.175 -19.6465 222.175 -0.588245V281.621C222.175 293.485 213.091 303.696 201.284 304.25C188.669 304.848 178.255 294.757 178.255 282.235V-48.5675C178.255 -67.2224 163.181 -82.3447 144.588 -82.3447C125.995 -82.3447 110.921 -67.2224 110.921 -48.5675V281.621C110.921 293.485 101.836 303.696 90.0306 304.25C77.4133 304.848 67.0016 294.757 67.0016 282.235V-0.588245C67.0016 -19.6465 51.5952 -35.1055 32.5861 -35.1055C13.577 -35.1055 -1.82932 -19.6465 -1.82932 -0.588245V329.914C-1.82932 341.771 -10.9144 351.982 -22.7208 352.536C-35.3369 353.134 -45.7502 343.043 -45.7502 330.521V271.779C-45.7502 247.068 -52.1207 217.442 -90.417 197.835C-100.118 192.868 -111.62 200.032 -111.62 210.958V411.314C-111.62 553.733 3.25363 669.558 144.588 669.558C285.922 669.558 400.795 553.733 400.795 411.314V210.958C400.795 200.032 389.293 192.868 379.592 197.835ZM161.79 356.957C165.15 358.373 167.166 361.843 166.731 365.462L156.521 450.036H230.116C232.913 450.036 235.555 450.035 237.677 450.235C239.727 450.425 243.036 450.913 245.826 453.245C249.117 455.999 250.923 460.094 250.856 464.302C250.809 467.833 249.141 470.645 247.978 472.388C246.776 474.19 245.095 476.275 243.303 478.512L142.333 604.054C140.046 606.9 136.149 607.882 132.782 606.467C129.421 605.051 127.404 601.58 127.84 597.962L138.05 513.387H64.4545C61.6606 513.387 59.0158 513.387 56.8943 513.188C54.8436 512.997 51.5351 512.51 48.7446 510.177C45.4531 507.424 43.6486 503.328 43.7147 499.121C43.7625 495.589 45.4303 492.778 46.5928 491.035C47.7955 489.232 49.4758 487.148 51.269 484.911L152.239 359.369C154.525 356.523 158.423 355.541 161.79 356.957Z"
      fill="white"
    />
  </g>
</svg>
