<svg width="1200" height="630" viewBox="0 0 1200 630" fill="none" xmlns="http://www.w3.org/2000/svg">
  <rect width="1200" height="630" fill="#0A0614" />
  <circle cx="270" cy="315" r="168" fill="white" fill-opacity="0.04" />
  <g transform="translate(102 145)">
    <g transform="rotate(180 168 168)">
      <path
        d="M347.447 173.915C313.95 191.06 308.378 216.977 308.378 238.582V289.456C308.378 299.834 300.426 308.77 290.093 309.256C279.053 309.779 269.939 270.944 269.939 289.987V0.242352C269.939 -16.436 256.457 -29.9748 239.818 -29.9748C223.178 -29.9748 209.696 -16.436 209.696 0.242352V247.188C209.696 257.572 201.743 266.508 191.41 266.994C180.371 267.517 171.256 258.682 171.256 247.739V-42.1708C171.256 -58.4994 158.058 -71.7344 141.782 -71.7344C125.507 -71.7344 112.309 -58.4994 112.309 -42.1708V247.188C112.309 257.572 104.356 266.508 94.0236 266.994C82.9827 267.517 73.8691 258.682 73.8691 247.739V0.242352C73.8691 -16.436 60.3868 -29.9748 43.748 -29.9748C27.1091 -29.9748 13.6268 -16.436 13.6268 0.242352V289.456C13.6268 299.834 5.67409 308.77 -4.65898 309.256C-15.6981 309.779 -24.8124 270.944 -24.8124 289.987V238.582C-24.8124 216.977 -30.3841 191.06 -63.881 173.915C-72.3684 169.57 -82.4349 175.838 -82.4349 185.398V360.549C-82.4349 485.086 18.1067 586.345 141.782 586.345C265.457 586.345 365.998 485.086 365.998 360.549V185.398C365.998 175.838 355.932 169.57 347.447 173.915ZM156.835 313.022C159.776 314.261 161.541 317.299 161.159 320.467L152.225 394.497H216.623C219.071 394.497 221.385 394.497 223.243 394.672C225.038 394.839 227.937 395.267 230.381 397.309C233.262 399.72 234.843 403.309 234.785 406.996C234.744 410.091 233.284 412.557 232.266 414.086C231.214 415.662 229.744 417.485 228.176 419.442L139.778 529.344C137.776 531.835 134.361 532.695 131.415 531.457C128.474 530.218 126.71 527.179 127.091 524.011L136.026 449.982H71.6275C69.1812 449.982 66.8651 449.981 65.0083 449.807C63.2124 449.64 60.3136 449.212 57.869 447.17C54.9884 444.759 53.4093 441.171 53.4672 437.483C53.509 434.389 54.9685 431.923 55.9863 430.394C57.0387 428.817 58.5086 426.995 60.0767 425.038L148.473 315.136C150.476 312.645 153.891 311.785 156.835 313.022Z"
        fill="white"
      />
    </g>
  </g>
  <text x="500" y="268" fill="white" font-size="74" font-family="Arial, Helvetica, sans-serif" font-weight="700">
    Conduit Merchant
  </text>
  <text x="500" y="346" fill="white" fill-opacity="0.78" font-size="32" font-family="Arial, Helvetica, sans-serif">
    Manage listings, invoices, fulfillment, and buyer conversations on Nostr.
  </text>
  <text x="500" y="428" fill="#BB00FF" font-size="28" font-family="Arial, Helvetica, sans-serif" font-weight="700">
    sell.conduit.market
  </text>
</svg>
